# xmcd
#
# Track frame offsets: 
#        150
#        15990
#        32383
#        49260
#        62903
#        78480
#        99213
#        111150
#        125328
#        139585
#        153435
#        165380
#        177625
#        199750
#
# Disc length: 2968 seconds
#
# Revision: 3
# Processed by: cddbd v1.5.2PL0 Copyright (c) Steve Scherf et al.
# Submitted via: ExactAudioCopyFreeDBPlugin 1.0
#
DISCID=ad0b960e
DTITLE=Various Artist - Mr Music Country 9-95
DYEAR=1900
DGENRE=Country
TTITLE0=Larry Joe Taylor with Christine Albert - Meet Me Down In Corpu
TTITLE0=s
TTITLE1=Philip Claypool with Carl Perkins - Mile Out Of Memphis
TTITLE2=Becky Hobbs - I Can´t Be Faithful Anymore
TTITLE3=Darrell McCall - Dreams Of A Dreamer
TTITLE4=Rick Vincent - Hello, She Lied
TTITLE5=Christine Albert with Jimmy La Fave - Come Away With Me
TTITLE6=Jeff Carson - Preachin' To The Choir
TTITLE7=Rayburn Anthony - This Old Jukebox
TTITLE8=Ronnie McDowell - Tie One On
TTITLE9=Dan Herrell - One Of Those Days
TTITLE10=Lorrie Morgan - Who Do You Know In California
TTITLE11=Hank Williams Jr. - Greeted In Enid
TTITLE12=Jann Browne - Red Moon Over Lugano
TTITLE13=Joe Pat Hennen - There Is A River
EXTD=
EXTT0=
EXTT1=
EXTT2=
EXTT3=
EXTT4=
EXTT5=
EXTT6=
EXTT7=
EXTT8=
EXTT9=
EXTT10=
EXTT11=
EXTT12=
EXTT13=
PLAYORDER=
